<?xml version="1.0" standalone="no"?>
<!DOCTYPE svg PUBLIC "-//W3C//DTD SVG 20010904//EN"
 "http://www.w3.org/TR/2001/REC-SVG-20010904/DTD/svg10.dtd">
<svg version="1.0" xmlns="http://www.w3.org/2000/svg"
 width="512.000000pt" height="512.000000pt" viewBox="0 0 512.000000 512.000000"
 preserveAspectRatio="xMidYMid meet">
<metadata>
Created by potrace 1.11, written by Peter Selinger 2001-2013
</metadata>
<g transform="translate(0.000000,512.000000) scale(0.100000,-0.100000)"
fill="#000000" stroke="none">
<path d="M3307 4159 c-401 -35 -713 -142 -953 -325 l-83 -64 -47 20 c-137 59
-344 88 -501 71 -378 -41 -694 -262 -855 -598 -47 -97 -98 -266 -98 -323 0
-23 -10 -31 -74 -64 -91 -46 -191 -127 -252 -204 -58 -73 -129 -217 -150 -307
-26 -106 -24 -279 5 -379 88 -313 336 -532 654 -575 47 -7 276 -11 574 -11
400 0 494 -2 490 -13 -13 -33 270 -185 458 -247 272 -88 453 -115 780 -114
269 0 397 13 592 59 486 116 813 395 905 773 25 103 29 294 9 412 -70 399
-358 616 -933 700 -113 17 -133 22 -146 42 -38 58 -171 174 -235 206 -137 67
-299 89 -432 58 -33 -8 -61 -13 -63 -11 -7 6 26 60 50 81 115 106 500 140 773
69 140 -37 288 -97 413 -170 59 -35 110 -60 113 -56 4 3 82 147 174 320 l168
314 -24 19 c-47 36 -190 120 -273 159 -290 135 -661 192 -1039 158z"/>
</g>
</svg>
